<svg width="112" height="38" viewBox="0 0 112 38" fill="none" xmlns="http://www.w3.org/2000/svg">
<path d="M4.58526 0.545454V18H0.894914V0.545454H4.58526ZM7.62148 0.545454H12.1726L16.9794 12.2727H17.184L21.9908 0.545454H26.5419V18H22.9624V6.6392H22.8175L18.3005 17.9148H15.863L11.3459 6.59659H11.201V18H7.62148V0.545454ZM29.5824 18V0.545454H36.4688C37.7926 0.545454 38.9205 0.798295 39.8523 1.30398C40.7841 1.80398 41.4943 2.5 41.983 3.39204C42.4773 4.27841 42.7245 5.30114 42.7245 6.46023C42.7245 7.61932 42.4745 8.64205 41.9745 9.52841C41.4745 10.4148 40.75 11.1051 39.8012 11.5994C38.858 12.0937 37.7159 12.3409 36.375 12.3409H31.9858V9.38352H35.7784C36.4887 9.38352 37.0739 9.26136 37.5341 9.01705C38 8.76705 38.3466 8.4233 38.5739 7.9858C38.8068 7.54261 38.9233 7.03409 38.9233 6.46023C38.9233 5.88068 38.8068 5.375 38.5739 4.94318C38.3466 4.50568 38 4.16761 37.5341 3.92898C37.0682 3.68466 36.4773 3.5625 35.7614 3.5625H33.2728V18H29.5824ZM45.1215 18V0.545454H56.8828V3.58807H48.8118V7.74716H56.2777V10.7898H48.8118V14.9574H56.9169V18H45.1215ZM59.8168 18V0.545454H66.7032C68.0213 0.545454 69.1463 0.78125 70.0782 1.25284C71.0157 1.71875 71.7287 2.38068 72.2174 3.23864C72.7117 4.09091 72.9588 5.09375 72.9588 6.24716C72.9588 7.40625 72.7088 8.40341 72.2088 9.23864C71.7088 10.0682 70.9844 10.7045 70.0355 11.1477C69.0924 11.5909 67.9503 11.8125 66.6094 11.8125H61.9986V8.84659H66.0128C66.7174 8.84659 67.3026 8.75 67.7685 8.55682C68.2344 8.36364 68.581 8.07386 68.8083 7.6875C69.0412 7.30114 69.1577 6.82102 69.1577 6.24716C69.1577 5.66761 69.0412 5.17898 68.8083 4.78125C68.581 4.38352 68.2316 4.08239 67.76 3.87784C67.2941 3.66761 66.706 3.5625 65.9958 3.5625H63.5071V18H59.8168ZM69.2429 10.0568L73.581 18H69.5071L65.2628 10.0568H69.2429ZM79.2571 0.545454V18H75.5668V0.545454H79.2571ZM85.3019 18H81.3473L87.3729 0.545454H92.1286L98.1456 18H94.1911L89.8189 4.53409H89.6826L85.3019 18ZM85.0547 11.1392H94.3956V14.0199H85.0547V11.1392ZM100.246 18V0.545454H103.937V14.9574H111.42V18H100.246Z" fill="#DF2727"/>
<path d="M21.2827 31.1818C21.2827 32.4356 21.0478 33.5095 20.5782 34.4034C20.1122 35.2936 19.4759 35.9754 18.6691 36.4489C17.866 36.9223 16.955 37.1591 15.9361 37.1591C14.9172 37.1591 14.0043 36.9223 13.1975 36.4489C12.3944 35.9716 11.7581 35.2879 11.2884 34.3977C10.8225 33.5038 10.5895 32.4318 10.5895 31.1818C10.5895 29.928 10.8225 28.8561 11.2884 27.9659C11.7581 27.072 12.3944 26.3883 13.1975 25.9148C14.0043 25.4413 14.9172 25.2045 15.9361 25.2045C16.955 25.2045 17.866 25.4413 18.6691 25.9148C19.4759 26.3883 20.1122 27.072 20.5782 27.9659C21.0478 28.8561 21.2827 29.928 21.2827 31.1818ZM19.1634 31.1818C19.1634 30.2992 19.0251 29.5549 18.7486 28.9489C18.4759 28.339 18.0971 27.8788 17.6122 27.5682C17.1274 27.2538 16.5687 27.0966 15.9361 27.0966C15.3035 27.0966 14.7448 27.2538 14.26 27.5682C13.7751 27.8788 13.3944 28.339 13.1179 28.9489C12.8452 29.5549 12.7088 30.2992 12.7088 31.1818C12.7088 32.0644 12.8452 32.8106 13.1179 33.4205C13.3944 34.0265 13.7751 34.4867 14.26 34.8011C14.7448 35.1117 15.3035 35.267 15.9361 35.267C16.5687 35.267 17.1274 35.1117 17.6122 34.8011C18.0971 34.4867 18.4759 34.0265 18.7486 33.4205C19.0251 32.8106 19.1634 32.0644 19.1634 31.1818ZM25.2415 31.8864V37H23.1847V28.2727H25.1506V29.7557H25.2529C25.4536 29.267 25.7737 28.8788 26.2131 28.5909C26.6563 28.303 27.2036 28.1591 27.8551 28.1591C28.4574 28.1591 28.982 28.2879 29.429 28.5455C29.8798 28.803 30.2282 29.1761 30.4745 29.6648C30.7245 30.1534 30.8476 30.7462 30.8438 31.4432V37H28.787V31.7614C28.787 31.178 28.6354 30.7216 28.3324 30.392C28.0332 30.0625 27.6184 29.8977 27.0881 29.8977C26.7282 29.8977 26.4082 29.9773 26.1279 30.1364C25.8514 30.2917 25.6336 30.517 25.4745 30.8125C25.3192 31.108 25.2415 31.4659 25.2415 31.8864ZM34.9915 25.3636V37H32.9347V25.3636H34.9915ZM37.1066 37V28.2727H39.1634V37H37.1066ZM38.1407 27.0341C37.8149 27.0341 37.5346 26.9261 37.2997 26.7102C37.0649 26.4905 36.9475 26.2273 36.9475 25.9205C36.9475 25.6098 37.0649 25.3466 37.2997 25.1307C37.5346 24.911 37.8149 24.8011 38.1407 24.8011C38.4702 24.8011 38.7505 24.911 38.9816 25.1307C39.2164 25.3466 39.3338 25.6098 39.3338 25.9205C39.3338 26.2273 39.2164 26.4905 38.9816 26.7102C38.7505 26.9261 38.4702 27.0341 38.1407 27.0341ZM43.3353 31.8864V37H41.2784V28.2727H43.2443V29.7557H43.3466C43.5474 29.267 43.8675 28.8788 44.3068 28.5909C44.75 28.303 45.2974 28.1591 45.9489 28.1591C46.5512 28.1591 47.0758 28.2879 47.5228 28.5455C47.9735 28.803 48.322 29.1761 48.5682 29.6648C48.8182 30.1534 48.9413 30.7462 48.9375 31.4432V37H46.8807V31.7614C46.8807 31.178 46.7292 30.7216 46.4262 30.392C46.1269 30.0625 45.7121 29.8977 45.1818 29.8977C44.822 29.8977 44.5019 29.9773 44.2216 30.1364C43.9451 30.2917 43.7273 30.517 43.5682 30.8125C43.4129 31.108 43.3353 31.4659 43.3353 31.8864ZM54.8921 37.1705C54.0171 37.1705 53.2614 36.9886 52.625 36.625C51.9925 36.2576 51.5057 35.7386 51.1648 35.0682C50.8239 34.3939 50.6534 33.6004 50.6534 32.6875C50.6534 31.7898 50.8239 31.0019 51.1648 30.3239C51.5095 29.642 51.9906 29.1117 52.608 28.733C53.2254 28.3504 53.9508 28.1591 54.7841 28.1591C55.322 28.1591 55.8296 28.2462 56.3068 28.4205C56.7879 28.5909 57.2121 28.8561 57.5796 29.2159C57.9508 29.5758 58.2425 30.0341 58.4546 30.5909C58.6667 31.1439 58.7728 31.803 58.7728 32.5682V33.1989H51.6193V31.8125H56.8012C56.7974 31.4186 56.7121 31.0682 56.5455 30.7614C56.3788 30.4508 56.1459 30.2064 55.8466 30.0284C55.5512 29.8504 55.2065 29.7614 54.8125 29.7614C54.3921 29.7614 54.0228 29.8636 53.7046 30.0682C53.3864 30.2689 53.1383 30.5341 52.9603 30.8636C52.786 31.1894 52.697 31.5473 52.6932 31.9375V33.1477C52.6932 33.6553 52.786 34.0909 52.9716 34.4545C53.1572 34.8144 53.4167 35.0909 53.75 35.2841C54.0834 35.4735 54.4735 35.5682 54.9205 35.5682C55.2197 35.5682 55.4906 35.5265 55.733 35.4432C55.9754 35.3561 56.1856 35.2292 56.3637 35.0625C56.5417 34.8958 56.6762 34.6894 56.7671 34.4432L58.6875 34.6591C58.5663 35.1667 58.3353 35.6098 57.9943 35.9886C57.6572 36.3636 57.2254 36.6553 56.6989 36.8636C56.1724 37.0682 55.5701 37.1705 54.8921 37.1705ZM64.5725 37V25.3636H69.027C69.8679 25.3636 70.5668 25.4962 71.1236 25.7614C71.6842 26.0227 72.1028 26.3807 72.3793 26.8352C72.6596 27.2898 72.7997 27.8049 72.7997 28.3807C72.7997 28.8542 72.7088 29.2595 72.527 29.5966C72.3452 29.9299 72.1009 30.2008 71.7941 30.4091C71.4872 30.6174 71.1444 30.767 70.7657 30.858V30.9716C71.1785 30.9943 71.5744 31.1212 71.9532 31.3523C72.3357 31.5795 72.6482 31.9015 72.8907 32.3182C73.1331 32.7348 73.2543 33.2386 73.2543 33.8295C73.2543 34.4318 73.1085 34.9735 72.8168 35.4545C72.5251 35.9318 72.0857 36.3087 71.4986 36.5852C70.9115 36.8617 70.1728 37 69.2827 37H64.5725ZM66.6804 35.2386H68.9475C69.7126 35.2386 70.2638 35.0928 70.6009 34.8011C70.9418 34.5057 71.1122 34.1269 71.1122 33.6648C71.1122 33.3201 71.027 33.0095 70.8566 32.733C70.6861 32.4527 70.4437 32.233 70.1293 32.0739C69.8149 31.911 69.4399 31.8295 69.0043 31.8295H66.6804V35.2386ZM66.6804 30.3125H68.7657C69.1293 30.3125 69.4569 30.2462 69.7486 30.1136C70.0403 29.9773 70.2694 29.786 70.4361 29.5398C70.6066 29.2898 70.6918 28.9943 70.6918 28.6534C70.6918 28.2027 70.5327 27.8314 70.2145 27.5398C69.9001 27.2481 69.4323 27.1023 68.8111 27.1023H66.6804V30.3125ZM77.5086 37.1761C76.9555 37.1761 76.4574 37.0777 76.0142 36.8807C75.5748 36.6799 75.2264 36.3845 74.9688 35.9943C74.715 35.6042 74.5881 35.1231 74.5881 34.5511C74.5881 34.0587 74.679 33.6515 74.8608 33.3295C75.0426 33.0076 75.2907 32.75 75.6051 32.5568C75.9195 32.3636 76.2737 32.2178 76.6676 32.1193C77.0654 32.017 77.4764 31.9432 77.9006 31.8977C78.412 31.8447 78.8267 31.7973 79.1449 31.7557C79.4631 31.7102 79.6942 31.642 79.8381 31.5511C79.9858 31.4564 80.0597 31.3106 80.0597 31.1136V31.0795C80.0597 30.6515 79.9328 30.3201 79.679 30.0852C79.4252 29.8504 79.0597 29.733 78.5824 29.733C78.0786 29.733 77.679 29.8428 77.3836 30.0625C77.0919 30.2822 76.8949 30.5417 76.7926 30.8409L74.8722 30.5682C75.0237 30.0379 75.2737 29.5947 75.6222 29.2386C75.9707 28.8788 76.3968 28.6098 76.9006 28.4318C77.4044 28.25 77.9612 28.1591 78.5711 28.1591C78.9915 28.1591 79.4101 28.2083 79.8267 28.3068C80.2434 28.4053 80.6241 28.5682 80.9688 28.7955C81.3135 29.0189 81.59 29.3239 81.7983 29.7102C82.0104 30.0966 82.1165 30.5795 82.1165 31.1591V37H80.1392V35.8011H80.0711C79.9461 36.0436 79.7699 36.2708 79.5426 36.483C79.3192 36.6913 79.037 36.8598 78.6961 36.9886C78.3589 37.1136 77.9631 37.1761 77.5086 37.1761ZM78.0426 35.6648C78.4555 35.6648 78.8135 35.5833 79.1165 35.4205C79.4195 35.2538 79.6525 35.0341 79.8154 34.7614C79.982 34.4886 80.0654 34.1913 80.0654 33.8693V32.8409C80.001 32.8939 79.8911 32.9432 79.7358 32.9886C79.5843 33.0341 79.4139 33.0739 79.2245 33.108C79.0351 33.142 78.8476 33.1723 78.662 33.1989C78.4764 33.2254 78.3154 33.2481 78.179 33.267C77.8722 33.3087 77.5976 33.3769 77.3551 33.4716C77.1127 33.5663 76.9214 33.6989 76.7813 33.8693C76.6411 34.036 76.5711 34.2519 76.5711 34.517C76.5711 34.8958 76.7093 35.1818 76.9858 35.375C77.2623 35.5682 77.6146 35.6648 78.0426 35.6648ZM86.2415 31.8864V37H84.1847V28.2727H86.1506V29.7557H86.2529C86.4536 29.267 86.7737 28.8788 87.2131 28.5909C87.6563 28.303 88.2036 28.1591 88.8551 28.1591C89.4574 28.1591 89.982 28.2879 90.429 28.5455C90.8798 28.803 91.2282 29.1761 91.4745 29.6648C91.7245 30.1534 91.8476 30.7462 91.8438 31.4432V37H89.787V31.7614C89.787 31.178 89.6354 30.7216 89.3324 30.392C89.0332 30.0625 88.6184 29.8977 88.0881 29.8977C87.7282 29.8977 87.4082 29.9773 87.1279 30.1364C86.8514 30.2917 86.6336 30.517 86.4745 30.8125C86.3192 31.108 86.2415 31.4659 86.2415 31.8864ZM95.8097 34.2614L95.804 31.7784H96.1336L99.2699 28.2727H101.673L97.8154 32.5682H97.3892L95.8097 34.2614ZM93.9347 37V25.3636H95.9915V37H93.9347ZM99.412 37L96.5711 33.0284L97.9574 31.5795L101.872 37H99.412Z" fill="black"/>
</svg>
