<svg width="196" height="71" viewBox="0 0 196 71" fill="none" xmlns="http://www.w3.org/2000/svg">
<rect width="196" height="71" fill="white" fill-opacity="0.49"/>
<path d="M70.223 16.5455V34H66.5327V16.5455H70.223ZM73.2592 16.5455H77.8104L82.6172 28.2727H82.8217L87.6286 16.5455H92.1797V34H88.6001V22.6392H88.4553L83.9382 33.9148H81.5007L76.9837 22.5966H76.8388V34H73.2592V16.5455ZM95.2202 34V16.5455H102.107C103.43 16.5455 104.558 16.7983 105.49 17.304C106.422 17.804 107.132 18.5 107.621 19.392C108.115 20.2784 108.362 21.3011 108.362 22.4602C108.362 23.6193 108.112 24.642 107.612 25.5284C107.112 26.4148 106.388 27.1051 105.439 27.5994C104.496 28.0937 103.354 28.3409 102.013 28.3409H97.6236V25.3835H101.416C102.126 25.3835 102.712 25.2614 103.172 25.017C103.638 24.767 103.984 24.4233 104.212 23.9858C104.445 23.5426 104.561 23.0341 104.561 22.4602C104.561 21.8807 104.445 21.375 104.212 20.9432C103.984 20.5057 103.638 20.1676 103.172 19.929C102.706 19.6847 102.115 19.5625 101.399 19.5625H98.9105V34H95.2202ZM110.759 34V16.5455H122.521V19.5881H114.45V23.7472H121.915V26.7898H114.45V30.9574H122.555V34H110.759ZM125.455 34V16.5455H132.341C133.659 16.5455 134.784 16.7812 135.716 17.2528C136.653 17.7187 137.366 18.3807 137.855 19.2386C138.349 20.0909 138.597 21.0937 138.597 22.2472C138.597 23.4062 138.347 24.4034 137.847 25.2386C137.347 26.0682 136.622 26.7045 135.673 27.1477C134.73 27.5909 133.588 27.8125 132.247 27.8125H127.636V24.8466H131.651C132.355 24.8466 132.94 24.75 133.406 24.5568C133.872 24.3636 134.219 24.0739 134.446 23.6875C134.679 23.3011 134.795 22.821 134.795 22.2472C134.795 21.6676 134.679 21.179 134.446 20.7812C134.219 20.3835 133.869 20.0824 133.398 19.8778C132.932 19.6676 132.344 19.5625 131.634 19.5625H129.145V34H125.455ZM134.881 26.0568L139.219 34H135.145L130.901 26.0568H134.881ZM144.895 16.5455V34H141.205V16.5455H144.895ZM150.94 34H146.985L153.011 16.5455H157.766L163.783 34H159.829L155.457 20.5341H155.32L150.94 34ZM150.692 27.1392H160.033V30.0199H150.692V27.1392ZM165.884 34V16.5455H169.575V30.9574H177.058V34H165.884Z" fill="#DF2727"/>
<path d="M86.9205 47.1818C86.9205 48.4356 86.6856 49.5095 86.2159 50.4034C85.75 51.2936 85.1136 51.9754 84.3068 52.4489C83.5038 52.9223 82.5928 53.1591 81.5739 53.1591C80.5549 53.1591 79.642 52.9223 78.8352 52.4489C78.0322 51.9716 77.3958 51.2879 76.9261 50.3977C76.4602 49.5038 76.2273 48.4318 76.2273 47.1818C76.2273 45.928 76.4602 44.8561 76.9261 43.9659C77.3958 43.072 78.0322 42.3883 78.8352 41.9148C79.642 41.4413 80.5549 41.2045 81.5739 41.2045C82.5928 41.2045 83.5038 41.4413 84.3068 41.9148C85.1136 42.3883 85.75 43.072 86.2159 43.9659C86.6856 44.8561 86.9205 45.928 86.9205 47.1818ZM84.8011 47.1818C84.8011 46.2992 84.6629 45.5549 84.3864 44.9489C84.1136 44.339 83.7348 43.8788 83.25 43.5682C82.7652 43.2538 82.2064 43.0966 81.5739 43.0966C80.9413 43.0966 80.3826 43.2538 79.8977 43.5682C79.4129 43.8788 79.0322 44.339 78.7557 44.9489C78.483 45.5549 78.3466 46.2992 78.3466 47.1818C78.3466 48.0644 78.483 48.8106 78.7557 49.4205C79.0322 50.0265 79.4129 50.4867 79.8977 50.8011C80.3826 51.1117 80.9413 51.267 81.5739 51.267C82.2064 51.267 82.7652 51.1117 83.25 50.8011C83.7348 50.4867 84.1136 50.0265 84.3864 49.4205C84.6629 48.8106 84.8011 48.0644 84.8011 47.1818ZM90.8793 47.8864V53H88.8224V44.2727H90.7884V45.7557H90.8906C91.0914 45.267 91.4115 44.8788 91.8509 44.5909C92.294 44.303 92.8414 44.1591 93.4929 44.1591C94.0952 44.1591 94.6198 44.2879 95.0668 44.5455C95.5175 44.803 95.866 45.1761 96.1122 45.6648C96.3622 46.1534 96.4853 46.7462 96.4815 47.4432V53H94.4247V47.7614C94.4247 47.178 94.2732 46.7216 93.9702 46.392C93.6709 46.0625 93.2562 45.8977 92.7259 45.8977C92.366 45.8977 92.0459 45.9773 91.7656 46.1364C91.4891 46.2917 91.2713 46.517 91.1122 46.8125C90.9569 47.108 90.8793 47.4659 90.8793 47.8864ZM100.629 41.3636V53H98.5724V41.3636H100.629ZM102.744 53V44.2727H104.801V53H102.744ZM103.778 43.0341C103.453 43.0341 103.172 42.9261 102.938 42.7102C102.703 42.4905 102.585 42.2273 102.585 41.9205C102.585 41.6098 102.703 41.3466 102.938 41.1307C103.172 40.911 103.453 40.8011 103.778 40.8011C104.108 40.8011 104.388 40.911 104.619 41.1307C104.854 41.3466 104.972 41.6098 104.972 41.9205C104.972 42.2273 104.854 42.4905 104.619 42.7102C104.388 42.9261 104.108 43.0341 103.778 43.0341ZM108.973 47.8864V53H106.916V44.2727H108.882V45.7557H108.984C109.185 45.267 109.505 44.8788 109.945 44.5909C110.388 44.303 110.935 44.1591 111.587 44.1591C112.189 44.1591 112.714 44.2879 113.161 44.5455C113.611 44.803 113.96 45.1761 114.206 45.6648C114.456 46.1534 114.579 46.7462 114.575 47.4432V53H112.518V47.7614C112.518 47.178 112.367 46.7216 112.064 46.392C111.765 46.0625 111.35 45.8977 110.82 45.8977C110.46 45.8977 110.14 45.9773 109.859 46.1364C109.583 46.2917 109.365 46.517 109.206 46.8125C109.051 47.108 108.973 47.4659 108.973 47.8864ZM120.53 53.1705C119.655 53.1705 118.899 52.9886 118.263 52.625C117.63 52.2576 117.143 51.7386 116.803 51.0682C116.462 50.3939 116.291 49.6004 116.291 48.6875C116.291 47.7898 116.462 47.0019 116.803 46.3239C117.147 45.642 117.628 45.1117 118.246 44.733C118.863 44.3504 119.589 44.1591 120.422 44.1591C120.96 44.1591 121.467 44.2462 121.945 44.4205C122.426 44.5909 122.85 44.8561 123.217 45.2159C123.589 45.5758 123.88 46.0341 124.092 46.5909C124.304 47.1439 124.411 47.803 124.411 48.5682V49.1989H117.257V47.8125H122.439C122.435 47.4186 122.35 47.0682 122.183 46.7614C122.017 46.4508 121.784 46.2064 121.484 46.0284C121.189 45.8504 120.844 45.7614 120.45 45.7614C120.03 45.7614 119.661 45.8636 119.342 46.0682C119.024 46.2689 118.776 46.5341 118.598 46.8636C118.424 47.1894 118.335 47.5473 118.331 47.9375V49.1477C118.331 49.6553 118.424 50.0909 118.609 50.4545C118.795 50.8144 119.054 51.0909 119.388 51.2841C119.721 51.4735 120.111 51.5682 120.558 51.5682C120.857 51.5682 121.128 51.5265 121.371 51.4432C121.613 51.3561 121.823 51.2292 122.001 51.0625C122.179 50.8958 122.314 50.6894 122.405 50.4432L124.325 50.6591C124.204 51.1667 123.973 51.6098 123.632 51.9886C123.295 52.3636 122.863 52.6553 122.337 52.8636C121.81 53.0682 121.208 53.1705 120.53 53.1705ZM130.21 53V41.3636H134.665C135.506 41.3636 136.205 41.4962 136.761 41.7614C137.322 42.0227 137.741 42.3807 138.017 42.8352C138.297 43.2898 138.438 43.8049 138.438 44.3807C138.438 44.8542 138.347 45.2595 138.165 45.5966C137.983 45.9299 137.739 46.2008 137.432 46.4091C137.125 46.6174 136.782 46.767 136.403 46.858V46.9716C136.816 46.9943 137.212 47.1212 137.591 47.3523C137.973 47.5795 138.286 47.9015 138.528 48.3182C138.771 48.7348 138.892 49.2386 138.892 49.8295C138.892 50.4318 138.746 50.9735 138.455 51.4545C138.163 51.9318 137.723 52.3087 137.136 52.5852C136.549 52.8617 135.811 53 134.92 53H130.21ZM132.318 51.2386H134.585C135.35 51.2386 135.902 51.0928 136.239 50.8011C136.58 50.5057 136.75 50.1269 136.75 49.6648C136.75 49.3201 136.665 49.0095 136.494 48.733C136.324 48.4527 136.081 48.233 135.767 48.0739C135.453 47.911 135.078 47.8295 134.642 47.8295H132.318V51.2386ZM132.318 46.3125H134.403C134.767 46.3125 135.095 46.2462 135.386 46.1136C135.678 45.9773 135.907 45.786 136.074 45.5398C136.244 45.2898 136.33 44.9943 136.33 44.6534C136.33 44.2027 136.17 43.8314 135.852 43.5398C135.538 43.2481 135.07 43.1023 134.449 43.1023H132.318V46.3125ZM143.146 53.1761C142.593 53.1761 142.095 53.0777 141.652 52.8807C141.213 52.6799 140.864 52.3845 140.607 51.9943C140.353 51.6042 140.226 51.1231 140.226 50.5511C140.226 50.0587 140.317 49.6515 140.499 49.3295C140.68 49.0076 140.929 48.75 141.243 48.5568C141.557 48.3636 141.911 48.2178 142.305 48.1193C142.703 48.017 143.114 47.9432 143.538 47.8977C144.05 47.8447 144.464 47.7973 144.783 47.7557C145.101 47.7102 145.332 47.642 145.476 47.5511C145.624 47.4564 145.697 47.3106 145.697 47.1136V47.0795C145.697 46.6515 145.571 46.3201 145.317 46.0852C145.063 45.8504 144.697 45.733 144.22 45.733C143.716 45.733 143.317 45.8428 143.021 46.0625C142.73 46.2822 142.533 46.5417 142.43 46.8409L140.51 46.5682C140.661 46.0379 140.911 45.5947 141.26 45.2386C141.608 44.8788 142.035 44.6098 142.538 44.4318C143.042 44.25 143.599 44.1591 144.209 44.1591C144.629 44.1591 145.048 44.2083 145.464 44.3068C145.881 44.4053 146.262 44.5682 146.607 44.7955C146.951 45.0189 147.228 45.3239 147.436 45.7102C147.648 46.0966 147.754 46.5795 147.754 47.1591V53H145.777V51.8011H145.709C145.584 52.0436 145.408 52.2708 145.18 52.483C144.957 52.6913 144.675 52.8598 144.334 52.9886C143.997 53.1136 143.601 53.1761 143.146 53.1761ZM143.68 51.6648C144.093 51.6648 144.451 51.5833 144.754 51.4205C145.057 51.2538 145.29 51.0341 145.453 50.7614C145.62 50.4886 145.703 50.1913 145.703 49.8693V48.8409C145.639 48.8939 145.529 48.9432 145.374 48.9886C145.222 49.0341 145.052 49.0739 144.862 49.108C144.673 49.142 144.485 49.1723 144.3 49.1989C144.114 49.2254 143.953 49.2481 143.817 49.267C143.51 49.3087 143.235 49.3769 142.993 49.4716C142.75 49.5663 142.559 49.6989 142.419 49.8693C142.279 50.036 142.209 50.2519 142.209 50.517C142.209 50.8958 142.347 51.1818 142.624 51.375C142.9 51.5682 143.252 51.6648 143.68 51.6648ZM151.879 47.8864V53H149.822V44.2727H151.788V45.7557H151.891C152.091 45.267 152.411 44.8788 152.851 44.5909C153.294 44.303 153.841 44.1591 154.493 44.1591C155.095 44.1591 155.62 44.2879 156.067 44.5455C156.518 44.803 156.866 45.1761 157.112 45.6648C157.362 46.1534 157.485 46.7462 157.482 47.4432V53H155.425V47.7614C155.425 47.178 155.273 46.7216 154.97 46.392C154.671 46.0625 154.256 45.8977 153.726 45.8977C153.366 45.8977 153.046 45.9773 152.766 46.1364C152.489 46.2917 152.271 46.517 152.112 46.8125C151.957 47.108 151.879 47.4659 151.879 47.8864ZM161.447 50.2614L161.442 47.7784H161.771L164.908 44.2727H167.311L163.453 48.5682H163.027L161.447 50.2614ZM159.572 53V41.3636H161.629V53H159.572ZM165.05 53L162.209 49.0284L163.595 47.5795L167.51 53H165.05Z" fill="black"/>
<g filter="url(#filter0_d_11_21)">
<ellipse cx="29.5" cy="19.6763" rx="9.5" ry="7.67633" fill="#DF2727"/>
<path d="M35.1819 20.1985C35.274 22.5511 33.0695 24.6565 30.0701 24.7391C27.0708 24.8216 24.7065 22.8419 24.6144 20.4892C24.5223 18.1366 26.7268 16.0312 29.7262 15.9486C32.7255 15.8661 35.0899 17.8458 35.1819 20.1985Z" stroke="white"/>
<g filter="url(#filter1_d_11_21)">
<line x1="30.7692" y1="30.6425" x2="30.7692" y2="57.4" stroke="black" stroke-width="4"/>
</g>
</g>
<defs>
<filter id="filter0_d_11_21" x="16" y="12" width="27" height="53.4" filterUnits="userSpaceOnUse" color-interpolation-filters="sRGB">
<feFlood flood-opacity="0" result="BackgroundImageFix"/>
<feColorMatrix in="SourceAlpha" type="matrix" values="0 0 0 0 0 0 0 0 0 0 0 0 0 0 0 0 0 0 127 0" result="hardAlpha"/>
<feOffset dy="4"/>
<feGaussianBlur stdDeviation="2"/>
<feComposite in2="hardAlpha" operator="out"/>
<feColorMatrix type="matrix" values="0 0 0 0 0 0 0 0 0 0 0 0 0 0 0 0 0 0 0.25 0"/>
<feBlend mode="normal" in2="BackgroundImageFix" result="effect1_dropShadow_11_21"/>
<feBlend mode="normal" in="SourceGraphic" in2="effect1_dropShadow_11_21" result="shape"/>
</filter>
<filter id="filter1_d_11_21" x="24.7692" y="30.6425" width="12" height="34.7575" filterUnits="userSpaceOnUse" color-interpolation-filters="sRGB">
<feFlood flood-opacity="0" result="BackgroundImageFix"/>
<feColorMatrix in="SourceAlpha" type="matrix" values="0 0 0 0 0 0 0 0 0 0 0 0 0 0 0 0 0 0 127 0" result="hardAlpha"/>
<feOffset dy="4"/>
<feGaussianBlur stdDeviation="2"/>
<feComposite in2="hardAlpha" operator="out"/>
<feColorMatrix type="matrix" values="0 0 0 0 0 0 0 0 0 0 0 0 0 0 0 0 0 0 0.25 0"/>
<feBlend mode="normal" in2="BackgroundImageFix" result="effect1_dropShadow_11_21"/>
<feBlend mode="normal" in="SourceGraphic" in2="effect1_dropShadow_11_21" result="shape"/>
</filter>
</defs>
</svg>
